<?xml version='1.0' encoding='utf-8'?>
<svg xmlns="http://www.w3.org/2000/svg" version="1.1" id="Layer_1" x="0px" y="0px" width="1057.322px" height="595.279px" viewBox="0 0 1057.322 595.279" enable-background="new 0 0 1057.322 595.279"> <g> <g> <polygon fill="#232426" points="92.732,330.584 93.708,331.948 93.324,331.948 98.53,340.844 121.443,340.844 122.308,333.054 122.493,330.58 "/> <polygon fill="#151516" points="121.693,331.254 120.775,340.096 98.956,340.096 93.77,331.254 93.52,330.311 92.309,330.469 92.099,331.499 98.104,341.588 122.111,341.588 123.202,331.254 "/> </g> <g> <polygon fill="#232426" points="641.979,191.476 445.576,165.037 199.009,246.645 276.063,242.137 276.119,242.134 335.963,222.447 330.947,238.929 350.286,237.802 354.613,216.29 451.236,184.419 613.575,203.048 613.417,222.412 613.417,222.412 645.565,220.529 "/> </g> <path fill="#0A0A0A" d="M838.846,355.434c0-1.574-0.07-3.135-0.168-4.687l0.885-0.055c0,0-0.09-1.184-0.178-2.373 c-0.146-1.178-0.287-2.358-0.287-2.358l-0.887,0.127c-0.218-1.65-0.468-3.281-0.802-4.886l0.871-0.182c0,0-0.27-1.154-0.528-2.318 c-0.25-1.168-0.601-2.295-0.601-2.295l-0.854,0.232c-0.447-1.596-0.935-3.174-1.486-4.726l0.842-0.297c0,0-0.1-0.276-0.231-0.698 c-0.17-0.421-0.386-0.97-0.603-1.523c-0.215-0.553-0.428-1.102-0.598-1.521c-0.164-0.411-0.297-0.682-0.297-0.682l-0.816,0.357 c-0.652-1.523-1.373-3.011-2.125-4.474l0.789-0.401c0,0-0.135-0.271-0.342-0.662c-0.189-0.406-0.482-0.926-0.777-1.437 c-0.592-1.028-1.184-2.063-1.184-2.063l-0.767,0.457c-0.854-1.408-1.771-2.789-2.725-4.133l0.729-0.513c0,0-0.172-0.239-0.432-0.6 c-0.26-0.361-0.592-0.861-0.959-1.328c-0.731-0.93-1.471-1.863-1.471-1.863l-0.689,0.556c-1.041-1.281-2.125-2.521-3.244-3.73 l0.646-0.604c0,0-0.814-0.863-1.631-1.72c-0.859-0.83-1.722-1.647-1.722-1.647l-0.608,0.647c-1.201-1.129-2.43-2.223-3.711-3.266 l0.563-0.695c0,0-0.93-0.729-1.869-1.467c-0.457-0.371-0.94-0.718-1.311-0.975c-0.357-0.26-0.6-0.431-0.6-0.431l-0.521,0.729 c-1.344-0.96-2.707-1.885-4.113-2.742l0.457-0.76c0,0-0.252-0.159-0.637-0.377c-0.385-0.224-0.904-0.521-1.416-0.813 c-1.02-0.615-2.088-1.141-2.088-1.141l-0.412,0.79c-1.461-0.763-2.939-1.479-4.463-2.146l0.356-0.813c0,0-0.276-0.121-0.684-0.306 c-0.414-0.165-0.961-0.381-1.514-0.602c-0.558-0.221-1.104-0.437-1.517-0.603c-0.424-0.166-0.701-0.251-0.701-0.251l-0.307,0.838 c-1.549-0.556-3.115-1.048-4.713-1.496l0.244-0.854c0,0-0.289-0.08-0.719-0.201c-0.433-0.125-1.004-0.281-1.584-0.408 c-1.158-0.264-2.314-0.532-2.314-0.532l-0.188,0.875c-1.601-0.343-3.23-0.608-4.877-0.838l0.125-0.879c0,0-1.187-0.15-2.355-0.303 c-1.182-0.093-2.365-0.182-2.365-0.182l-0.063,0.882c-1.646-0.111-3.283-0.191-4.949-0.191v-0.893c0,0-1.184,0.025-2.375,0.059 c-1.182,0.01-2.367,0.111-2.367,0.111l0.058,0.888c-1.658,0.104-3.3,0.272-4.923,0.492l-0.125-0.883c0,0-1.174,0.126-2.35,0.355 c-1.164,0.208-2.328,0.419-2.328,0.419l0.178,0.868c-1.631,0.332-3.227,0.738-4.813,1.182l-0.24-0.856c0,0-1.141,0.313-2.274,0.662 c-1.132,0.381-2.253,0.763-2.253,0.763l0.298,0.838c-1.568,0.555-3.103,1.152-4.605,1.81l-0.356-0.816c0,0-1.086,0.493-2.168,0.981 c-0.537,0.231-1.063,0.526-1.466,0.728c-0.393,0.2-0.659,0.34-0.659,0.34l0.407,0.784c-1.471,0.763-2.92,1.557-4.315,2.405 l-0.467-0.757c0,0-1.007,0.641-1.998,1.28c-0.502,0.316-1.002,0.643-1.363,0.909c-0.357,0.257-0.602,0.433-0.602,0.433l0.514,0.725 c-1.355,0.947-2.672,1.939-3.953,2.979l-0.564-0.688c0,0-0.231,0.176-0.571,0.469c-0.343,0.289-0.781,0.677-1.238,1.064 c-0.447,0.389-0.887,0.779-1.229,1.07c-0.319,0.313-0.534,0.516-0.534,0.516l0.6,0.646c-1.199,1.127-2.367,2.288-3.494,3.498 l-0.645-0.604c0,0-0.834,0.849-1.599,1.762c-0.395,0.445-0.774,0.898-1.063,1.229c-0.295,0.336-0.478,0.572-0.478,0.572 l0.685,0.563c-1.039,1.281-2.025,2.603-2.982,3.945l-0.729-0.514c0,0-0.17,0.241-0.435,0.608c-0.262,0.359-0.6,0.844-0.912,1.354 c-0.639,0.994-1.276,1.998-1.276,1.998l0.762,0.467c-0.863,1.396-1.67,2.842-2.422,4.313l-0.789-0.412c0,0-0.557,1.058-1.076,2.123 c-0.494,1.086-0.983,2.168-0.983,2.168l0.813,0.353c-0.656,1.504-1.271,3.037-1.818,4.598l-0.844-0.295c0,0-0.377,1.131-0.762,2.25 c-0.195,0.563-0.33,1.146-0.467,1.566c-0.123,0.422-0.205,0.717-0.205,0.717l0.856,0.244c-0.444,1.576-0.852,3.172-1.188,4.795 l-0.867-0.172c0,0-0.064,0.289-0.137,0.727c-0.08,0.439-0.189,1.021-0.295,1.604c-0.229,1.164-0.359,2.352-0.359,2.352l0.879,0.113 c-0.225,1.631-0.393,3.271-0.502,4.932l-0.889-0.063c0,0-0.117,1.184-0.125,2.364c-0.027,1.189-0.056,2.388-0.056,2.388h0.89 c0,0.035,0,0.082,0,0.123c0,1.625,0.071,3.229,0.18,4.823l-0.889,0.054c0,0,0.092,1.184,0.18,2.364 c0.146,1.187,0.297,2.355,0.297,2.355l0.877-0.113c0.228,1.646,0.484,3.275,0.816,4.888l-0.867,0.178c0,0,0.268,1.154,0.525,2.313 c0.137,0.582,0.27,1.166,0.401,1.584c0.115,0.433,0.195,0.718,0.195,0.718l0.861-0.24c0.448,1.596,0.934,3.17,1.487,4.723 l-0.844,0.297c0,0,0.1,0.275,0.24,0.699c0.164,0.422,0.387,0.967,0.604,1.523c0.215,0.555,0.438,1.1,0.603,1.521 c0.17,0.402,0.305,0.674,0.305,0.674l0.814-0.354c0.653,1.518,1.37,3.002,2.135,4.463l-0.789,0.414c0,0,0.125,0.26,0.33,0.664 c0.199,0.402,0.494,0.912,0.787,1.422c0.594,1.033,1.192,2.064,1.192,2.064l0.752-0.466c0.859,1.418,1.785,2.777,2.736,4.134 l-0.729,0.512c0,0,0.18,0.242,0.43,0.609c0.27,0.348,0.594,0.852,0.969,1.313c0.734,0.938,1.469,1.863,1.469,1.863l0.691-0.554 c1.039,1.271,2.123,2.521,3.254,3.718l-0.645,0.61c0,0,0.813,0.857,1.631,1.711c0.858,0.824,1.721,1.648,1.721,1.648l0.607-0.652 c1.202,1.131,2.438,2.224,3.723,3.265l-0.566,0.688c0,0,0.943,0.734,1.873,1.473c0.457,0.375,0.953,0.707,1.318,0.968 c0.356,0.254,0.6,0.432,0.6,0.432l0.513-0.727c1.346,0.948,2.717,1.873,4.133,2.731l-0.469,0.765c0,0,1.03,0.592,2.063,1.182 c1.014,0.611,2.088,1.129,2.088,1.129l0.404-0.787c1.461,0.762,2.949,1.479,4.473,2.133l-0.358,0.828c0,0,0.268,0.115,0.68,0.295 c0.414,0.162,0.969,0.388,1.518,0.603c0.558,0.215,1.107,0.438,1.521,0.6c0.41,0.162,0.699,0.242,0.699,0.242l0.295-0.832 c1.549,0.543,3.129,1.037,4.723,1.484l-0.238,0.854c0,0,0.285,0.09,0.718,0.207c0.422,0.133,1.004,0.277,1.588,0.402 c1.153,0.271,2.311,0.526,2.311,0.526l0.183-0.864c1.612,0.33,3.233,0.598,4.885,0.821l-0.127,0.879c0,0,1.184,0.152,2.356,0.296 c1.193,0.1,2.373,0.188,2.373,0.188l0.058-0.889c1.61,0.108,3.244,0.18,4.885,0.18c0.018,0,0.045,0,0.063,0v0.896 c0,0,1.189-0.035,2.375-0.063c1.189-0.01,2.371-0.115,2.371-0.115l-0.061-0.889c1.658-0.107,3.299-0.277,4.92-0.504l0.125,0.889 c0,0,1.188-0.135,2.35-0.367c1.164-0.217,2.343-0.42,2.343-0.42l-0.183-0.879c1.621-0.33,3.219-0.744,4.805-1.184l0.24,0.858 c0,0,0.279-0.092,0.709-0.207c0.433-0.137,1.017-0.27,1.568-0.469c1.119-0.385,2.248-0.764,2.248-0.764l-0.295-0.84 c1.561-0.547,3.094-1.156,4.598-1.812l0.357,0.814c0,0,1.084-0.492,2.161-0.984c1.074-0.512,2.123-1.065,2.123-1.065l-0.411-0.787 c1.469-0.763,2.922-1.563,4.319-2.422l0.465,0.762c0,0,0.996-0.646,2-1.283c0.502-0.313,1.005-0.643,1.353-0.912 c0.369-0.248,0.611-0.432,0.611-0.432l-0.513-0.728c1.344-0.948,2.672-1.942,3.943-2.983l0.563,0.692c0,0,0.232-0.182,0.572-0.477 c0.332-0.285,0.779-0.683,1.229-1.066c0.448-0.396,0.905-0.771,1.237-1.076c0.313-0.313,0.525-0.521,0.525-0.521l-0.6-0.645 c1.2-1.13,2.364-2.296,3.493-3.505l0.646,0.609c0,0,0.205-0.215,0.52-0.541c0.296-0.32,0.685-0.777,1.074-1.225 c0.388-0.451,0.771-0.898,1.066-1.24c0.297-0.33,0.467-0.572,0.467-0.572l-0.689-0.555c1.05-1.283,2.033-2.598,2.984-3.953 l0.727,0.512c0,0,0.171-0.242,0.431-0.602c0.27-0.355,0.594-0.857,0.914-1.361c0.635-0.994,1.28-2,1.28-2l-0.762-0.465 c0.859-1.406,1.648-2.852,2.41-4.32l0.789,0.414c0,0,0.135-0.27,0.342-0.664c0.195-0.403,0.482-0.914,0.728-1.461 c0.493-1.086,0.977-2.162,0.977-2.162l-0.813-0.356c0.66-1.504,1.265-3.047,1.812-4.604l0.842,0.3c0,0,0.387-1.132,0.764-2.255 c0.193-0.563,0.33-1.139,0.466-1.565c0.119-0.42,0.196-0.709,0.196-0.709l-0.852-0.242c0.438-1.586,0.852-3.18,1.182-4.803 l0.871,0.18c0,0,0.205-1.176,0.422-2.338c0.232-1.168,0.357-2.35,0.357-2.35l-0.879-0.117c0.217-1.631,0.387-3.271,0.494-4.933 l0.887,0.063c0,0,0.106-1.185,0.117-2.377c0.022-1.185,0.063-2.375,0.063-2.375h-0.897v0.004l0,0V355.434z"/> <path fill="#0A0A0A" d="M305.512,355.94c0-1.57-0.067-3.139-0.173-4.688l0.89-0.058c0,0-0.09-1.182-0.182-2.36 c-0.146-1.187-0.29-2.359-0.29-2.359l-0.884,0.115c-0.215-1.648-0.473-3.277-0.804-4.884l0.874-0.182c0,0-0.271-1.156-0.532-2.313 c-0.246-1.164-0.597-2.304-0.597-2.304l-0.855,0.23c-0.438-1.592-0.933-3.172-1.479-4.724l0.839-0.295c0,0-0.095-0.276-0.237-0.696 c-0.161-0.412-0.381-0.972-0.597-1.523c-0.22-0.559-0.438-1.104-0.604-1.516c-0.155-0.422-0.292-0.683-0.292-0.683l-0.813,0.353 c-0.653-1.523-1.372-3.017-2.124-4.478l0.788-0.409c0,0-0.135-0.265-0.341-0.656c-0.191-0.398-0.482-0.92-0.784-1.435 c-0.591-1.03-1.185-2.063-1.185-2.063l-0.762,0.457c-0.854-1.406-1.771-2.779-2.722-4.131l0.728-0.513c0,0-0.171-0.241-0.432-0.602 c-0.265-0.355-0.587-0.859-0.959-1.324c-0.733-0.934-1.47-1.865-1.47-1.865l-0.688,0.564c-1.041-1.291-2.125-2.533-3.245-3.736 l0.648-0.608c0,0-0.819-0.854-1.643-1.718c-0.854-0.824-1.711-1.646-1.711-1.646l-0.608,0.646 c-1.205-1.129-2.438-2.223-3.715-3.268l0.561-0.695c0,0-0.932-0.723-1.863-1.459c-0.461-0.375-0.948-0.717-1.313-0.977 c-0.362-0.258-0.604-0.435-0.604-0.435l-0.517,0.73c-1.344-0.958-2.711-1.88-4.118-2.741l0.463-0.757c0,0-0.251-0.161-0.637-0.382 c-0.391-0.226-0.905-0.521-1.421-0.814c-1.02-0.607-2.084-1.135-2.084-1.135l-0.413,0.789c-1.461-0.768-2.942-1.482-4.463-2.144 l0.356-0.813c0,0-0.271-0.125-0.677-0.311c-0.417-0.163-0.969-0.382-1.521-0.598c-0.558-0.221-1.105-0.438-1.52-0.603 c-0.414-0.169-0.704-0.25-0.704-0.25l-0.297,0.834c-1.546-0.559-3.123-1.044-4.72-1.492l0.242-0.854c0,0-0.286-0.08-0.719-0.206 c-0.426-0.126-0.998-0.277-1.581-0.402c-1.155-0.271-2.313-0.532-2.313-0.532l-0.185,0.869c-1.604-0.337-3.234-0.61-4.881-0.834 l0.121-0.883c0,0-1.175-0.147-2.354-0.297c-1.185-0.1-2.37-0.188-2.37-0.188l-0.063,0.887c-1.636-0.115-3.277-0.196-4.94-0.196 V284.5c0,0-1.188,0.027-2.37,0.056c-1.192,0.01-2.375,0.11-2.375,0.11l0.059,0.888c-1.656,0.106-3.298,0.271-4.925,0.492 l-0.121-0.883c0,0-1.18,0.126-2.35,0.356c-1.165,0.207-2.334,0.424-2.334,0.424l0.18,0.868c-1.627,0.331-3.228,0.733-4.809,1.179 l-0.243-0.858c0,0-1.146,0.316-2.275,0.661c-1.129,0.388-2.254,0.769-2.254,0.769l0.296,0.84c-1.563,0.546-3.103,1.146-4.605,1.806 l-0.354-0.813c0,0-1.084,0.486-2.165,0.978c-0.547,0.236-1.063,0.533-1.465,0.728c-0.396,0.2-0.659,0.341-0.659,0.341l0.408,0.789 c-1.471,0.757-2.918,1.551-4.325,2.405l-0.461-0.758c0,0-1.004,0.638-2.004,1.282c-0.501,0.313-0.999,0.635-1.355,0.902 c-0.363,0.258-0.604,0.432-0.604,0.432l0.511,0.729c-1.35,0.948-2.671,1.94-3.95,2.975l-0.563-0.684c0,0-0.238,0.172-0.574,0.463 c-0.34,0.299-0.784,0.684-1.234,1.071c-0.448,0.388-0.895,0.781-1.229,1.072c-0.324,0.31-0.538,0.51-0.538,0.51l0.604,0.656 c-1.209,1.123-2.375,2.289-3.499,3.494l-0.653-0.604c0,0-0.829,0.846-1.593,1.758c-0.391,0.447-0.773,0.896-1.065,1.234 c-0.296,0.327-0.476,0.569-0.476,0.569l0.687,0.564c-1.044,1.274-2.028,2.59-2.983,3.944l-0.728-0.521c0,0-0.17,0.24-0.431,0.607 c-0.265,0.358-0.601,0.844-0.913,1.354c-0.643,0.994-1.282,1.996-1.282,1.996l0.759,0.467c-0.859,1.406-1.657,2.853-2.421,4.313 l-0.789-0.404c0,0-0.556,1.051-1.074,2.117c-0.487,1.082-0.979,2.168-0.979,2.168l0.813,0.348c-0.657,1.508-1.27,3.049-1.823,4.607 l-0.833-0.306c0,0-0.386,1.132-0.769,2.248c-0.2,0.566-0.337,1.142-0.466,1.57c-0.126,0.43-0.2,0.715-0.2,0.715l0.854,0.242 c-0.448,1.58-0.854,3.184-1.191,4.807l-0.867-0.188c0,0-0.063,0.295-0.142,0.736c-0.08,0.438-0.185,1.02-0.286,1.604 c-0.229,1.174-0.366,2.348-0.366,2.348l0.879,0.127c-0.227,1.621-0.393,3.265-0.502,4.925l-0.889-0.064c0,0-0.11,1.18-0.121,2.373 c-0.025,1.184-0.06,2.365-0.06,2.365l0.888,0.01c0,0.043,0,0.088,0,0.127c0,1.619,0.07,3.229,0.182,4.814l-0.889,0.063 c0,0,0.089,1.189,0.181,2.373c0.146,1.174,0.3,2.352,0.3,2.352l0.878-0.118c0.227,1.647,0.484,3.28,0.814,4.885l-0.867,0.18 c0,0,0.265,1.156,0.531,2.314c0.129,0.584,0.267,1.166,0.396,1.586c0.126,0.434,0.202,0.719,0.202,0.719l0.858-0.24 c0.443,1.592,0.938,3.174,1.482,4.726l-0.833,0.295c0,0,0.095,0.287,0.237,0.696c0.166,0.423,0.381,0.979,0.601,1.523 c0.221,0.557,0.436,1.104,0.602,1.523c0.172,0.414,0.302,0.684,0.302,0.684l0.813-0.359c0.658,1.521,1.371,3.002,2.134,4.464 l-0.788,0.411c0,0,0.131,0.271,0.338,0.664c0.189,0.402,0.489,0.914,0.786,1.425c0.598,1.028,1.188,2.063,1.188,2.063l0.758-0.465 c0.86,1.414,1.778,2.785,2.732,4.131l-0.728,0.508c0,0,0.17,0.244,0.433,0.611c0.264,0.358,0.587,0.852,0.963,1.317 c0.733,0.933,1.472,1.863,1.472,1.863l0.688-0.557c1.04,1.283,2.129,2.52,3.259,3.721l-0.653,0.609c0,0,0.819,0.858,1.642,1.721 c0.858,0.816,1.716,1.641,1.716,1.641l0.607-0.645c1.206,1.119,2.442,2.211,3.728,3.252l-0.564,0.689c0,0,0.938,0.729,1.873,1.471 c0.457,0.377,0.953,0.709,1.313,0.967c0.361,0.262,0.604,0.432,0.604,0.432l0.511-0.727c1.351,0.951,2.718,1.875,4.129,2.732 l-0.463,0.762c0,0,1.025,0.592,2.059,1.186c1.019,0.615,2.089,1.132,2.089,1.132l0.412-0.791c1.456,0.762,2.944,1.479,4.463,2.143 l-0.354,0.816c0,0,0.27,0.116,0.678,0.297c0.417,0.16,0.968,0.383,1.521,0.6c0.553,0.226,1.104,0.439,1.517,0.604 c0.421,0.157,0.704,0.25,0.704,0.25l0.296-0.845c1.55,0.558,3.128,1.041,4.724,1.486l-0.242,0.859c0,0,0.286,0.082,0.717,0.196 c0.424,0.136,1.006,0.277,1.583,0.402c1.155,0.27,2.315,0.539,2.315,0.539l0.181-0.879c1.607,0.34,3.234,0.602,4.88,0.824 l-0.119,0.877c0,0,1.179,0.149,2.354,0.307c1.188,0.09,2.37,0.178,2.37,0.178l0.06-0.887c1.617,0.107,3.238,0.189,4.882,0.189 c0.021,0,0.046-0.011,0.064-0.011v0.896c0,0,1.188-0.039,2.376-0.064c1.188-0.006,2.37-0.112,2.37-0.112l-0.059-0.89 c1.656-0.112,3.298-0.274,4.921-0.502l0.121,0.892c0,0,1.183-0.14,2.348-0.367c1.17-0.217,2.34-0.422,2.34-0.422l-0.18-0.884 c1.622-0.327,3.223-0.731,4.804-1.184l0.242,0.861c0,0,0.282-0.082,0.712-0.203c0.428-0.137,1.004-0.271,1.569-0.469 c1.125-0.386,2.243-0.763,2.243-0.763l-0.296-0.842c1.562-0.549,3.099-1.158,4.604-1.813l0.357,0.813c0,0,1.079-0.494,2.164-0.981 c1.065-0.517,2.12-1.064,2.12-1.064l-0.413-0.791c1.472-0.762,2.917-1.559,4.324-2.42l0.462,0.762c0,0,0.999-0.635,1.998-1.278 c0.507-0.314,1-0.646,1.357-0.914c0.356-0.263,0.602-0.433,0.602-0.433l-0.517-0.727c1.354-0.949,2.671-1.939,3.948-2.984 l0.563,0.689c0,0,0.243-0.183,0.573-0.478c0.337-0.289,0.784-0.674,1.23-1.063c0.448-0.396,0.905-0.771,1.229-1.076 s0.539-0.51,0.539-0.51l-0.604-0.656c1.205-1.119,2.371-2.293,3.495-3.494l0.653,0.6c0,0,0.202-0.204,0.511-0.534 c0.302-0.324,0.688-0.781,1.076-1.23c0.391-0.445,0.773-0.895,1.065-1.227c0.297-0.34,0.472-0.582,0.472-0.582l-0.688-0.56 c1.043-1.278,2.028-2.6,2.982-3.951l0.728,0.513c0,0,0.171-0.242,0.432-0.604c0.27-0.356,0.592-0.852,0.909-1.358 c0.642-0.994,1.281-2,1.281-2l-0.764-0.457c0.86-1.406,1.654-2.855,2.416-4.318l0.788,0.402c0,0,0.135-0.263,0.337-0.664 c0.196-0.396,0.488-0.914,0.729-1.459c0.489-1.084,0.979-2.16,0.979-2.16l-0.815-0.359c0.66-1.508,1.267-3.047,1.814-4.604 l0.839,0.295c0,0,0.382-1.119,0.763-2.25c0.191-0.558,0.33-1.142,0.461-1.563c0.121-0.43,0.202-0.715,0.202-0.715l-0.854-0.242 c0.441-1.58,0.852-3.184,1.183-4.807l0.874,0.178c0,0,0.211-1.17,0.417-2.336c0.233-1.168,0.363-2.35,0.363-2.35l-0.883-0.115 c0.22-1.631,0.385-3.272,0.496-4.93l0.889,0.063c0,0,0.106-1.188,0.117-2.375c0.023-1.184,0.058-2.375,0.058-2.375h-0.89 L305.512,355.94L305.512,355.94z"/> <g> <g> <g> <polygon fill="#131414" points="326.337,239.123 304.329,240.409 316.285,207.399 338.535,200.032 "/> </g> </g> <g> <g> <polygon fill="#131414" points="496.364,229.256 499.63,170.876 481.485,168.918 466.737,231.41 "/> </g> </g> <g> <polygon fill="#131414" points="645.565,220.529 625.954,221.677 624.997,189.191 641.979,191.476 "/> </g> </g> <g> <g> <g> <g> <path fill="#E8E8E8" d="M445.576,156.656L116.094,264.598l16.63,8.541l568.509-20.433l268.818-26.955L445.576,156.656z M199.009,246.645l246.567-81.608l196.403,26.439l3.586,29.053L199.009,246.645z"/> </g> </g> </g> <g> <g> <path fill="#151516" d="M132.558,273.887l-0.171-0.091l-18.017-9.254l1.425-0.627l329.71-108.02l0.17,0.024l525.255,69.196 l-0.26,1.313l-269.365,27.01L132.558,273.887z M118.007,264.751l14.885,7.644l568.316-20.421l262.421-26.319l-517.98-68.238 L118.007,264.751z M193.424,247.715l252.084-83.436l0.17,0.021l196.969,26.521l3.754,30.4l-0.787,0.045L193.424,247.715z M445.647,165.795L204.59,245.58l440.151-25.739l-3.426-27.703L445.647,165.795z"/> </g> </g> </g> <g> <polygon fill="#F1F2F2" points="116.094,277.98 89.457,286.261 88.74,279.22 116.094,267.158 "/> </g> <g> <g> <polygon fill="#898989" points="117.396,330.754 116.094,278.195 87.202,287.176 92.754,330.754 "/> <path fill="#151516" d="M118.159,331.499h-26.06l-5.708-44.848l30.42-9.45L118.159,331.499z M93.403,330.01h23.236l-1.266-50.816 l-27.357,8.503L93.403,330.01z"/> </g> </g> <g> <g> <g> <polygon fill="#494949" points="705.571,374.86 297.119,382.327 296.445,345.307 704.891,337.852 "/> </g> </g> </g> <g> <g> <polygon fill="#131414" points="870.987,378.981 873.661,377.327 876.686,327.6 841.993,275.252 752.249,276.02 726.247,311.518 705.983,349.198 703.903,386.78 855.409,381.969 "/> </g> </g> <g> <g> <polygon fill="#232426" points="874.069,339.028 874.069,329.723 942.661,322.571 942.196,333.469 "/> <path fill="#151516" d="M873.338,339.821v-10.762l70.104-7.313l-0.535,12.41L873.338,339.821z M874.815,330.395v7.822 l66.664-5.431l0.402-9.387L874.815,330.395z"/> </g> </g> <g> <polygon fill="#949494" points="116.094,264.598 116.094,330.538 305.642,349.43 701.233,342.778 709.747,342.18 722.053,323.424 751.846,277.659 801.401,275.704 842.952,275.825 863.586,310.639 874.948,329.309 883.186,329.911 950.461,323.36 970.052,225.756 "/> <path fill="#151516" d="M305.609,350.177l-0.044-0.01l-190.212-18.957v-66.94l0.704-0.41l854.02-38.852l0.854,0.111 l-19.855,98.917l-67.815,6.615l-8.738-0.637l-11.563-18.992l-20.431-34.461l-41.129-0.12l-49.143,1.938l-29.588,45.451 l-12.502,19.063l-8.894,0.617L305.609,350.177z M116.833,329.866l188.836,18.822l395.548-6.65l8.121-0.563l12.098-18.453 l30-46.087l49.94-1.968l41.998,0.119l20.847,35.178l11.17,18.34l7.85,0.574l66.605-6.498l19.297-96.146l-852.308,38.772 L116.833,329.866L116.833,329.866z"/> </g> <g> <g> <path fill="#131414" d="M293.475,345.946l-39.636-65.229l-96.676,1.637l-35.623,46.913l-1.646,6.199l0.623,2.584l-0.01,1.549 l-1.892,0.688l-2.563,21.244l16.004,10.736l41.55,13.021l125.345,1.49L293.475,345.946z"/> </g> </g> <g> <polygon fill="#151516" points="88.721,286.334 87.718,276.216 115.798,263.919 116.389,265.276 89.3,277.142 90.194,286.185 "/> </g> <g> <polygon fill="#151516" points="122.151,338.522 120.7,338.219 121.243,335.61 122.34,336.499 "/> </g> <g> <g> <polygon fill="#151516" points="473.661,369.717 472.183,369.717 472.183,248.367 475.122,230.336 476.582,230.577 473.651,248.489 "/> </g> <g> <polygon fill="#151516" points="648.594,367.752 647.116,367.752 647.116,240.409 644.842,220.615 646.302,220.444 648.594,240.323 "/> </g> <g> <polygon fill="#151516" points="306.977,372.915 303.603,349.543 301.913,256.066 303.594,240.328 305.063,240.489 303.387,256.131 305.072,349.424 308.441,372.709 "/> </g> </g> <g> <path fill="#151516" d="M427.752,260.58v-7.277l36.631-1.361v7.278L427.752,260.58z M429.233,254.726v4.313l33.663-1.25v-4.314 L429.233,254.726z"/> </g> <g> <g> <path fill="#151516" d="M602.688,252.62v-7.274l36.629-1.357v7.272L602.688,252.62z M604.167,246.771v4.313l33.664-1.25v-4.314 L604.167,246.771z"/> </g> </g> <g> <polygon fill="#FFFC58" points="120.159,337.194 102.6,337.194 102.6,334.006 117.385,334.006 120.404,335.959 "/> <path fill="#D3D14E" d="M120.768,337.93h-18.907v-4.662h15.738l3.626,2.34L120.768,337.93z M103.34,336.452h16.21l0.03-0.145 l-2.416-1.562H103.34V336.452z"/> </g> <g> <g> <polygon fill="#232426" points="90.957,351.321 99.881,364.809 130.21,371.131 123.492,362.643 121.427,350.122 121.427,338.372 88.838,338.372 "/> <path fill="#151516" d="M132.06,372.268l-32.629-6.793l-9.204-14.037l-2.266-13.801h34.202v12.481l2.024,12.209L132.06,372.268z M100.328,364.147l28.034,5.836l-5.568-7.033l-2.099-12.7l-0.01-11.134H89.707l1.959,11.933L100.328,364.147z"/> </g> </g> <g> <g> <polygon fill="#232426" points="957.315,344.252 957.315,331.03 874.069,337.719 871.795,377.872 "/> <path fill="#151516" d="M870.987,378.981l2.383-41.941l0.646-0.057l84.043-6.76v14.528l-0.475,0.188L870.987,378.981z M874.778,338.409l-2.188,38.349l83.989-33.015v-11.914L874.778,338.409z"/> </g> </g> <polygon fill="#898989" points="116.094,267.158 88.74,279.22 88.51,276.676 116.094,264.598 "/> <path fill="#151516" d="M88.098,280.315l-0.376-4.102l28.073-12.298l1.035-0.341v4.062L88.098,280.315z M89.295,277.142l0.09,0.983 l25.972-11.453v-0.939L89.295,277.142z"/> <g opacity="0.5"> <g> <polygon points="199.009,246.645 445.576,165.037 641.979,191.476 645.565,220.529 "/> </g> </g> <g> <path fill="#151516" d="M193.424,247.715l252.084-83.436l0.17,0.021l196.969,26.521l3.754,30.4l-0.787,0.045L193.424,247.715z M445.647,165.795L204.59,245.58l440.151-25.739l-3.426-27.703L445.647,165.795z"/> </g> <polygon fill="#151516" points="843.184,269.081 844.129,270.563 845.883,270.563 864.383,270.563 886.555,270.563 886.555,293.235 864.383,293.235 860.385,293.235 858.631,293.235 859.579,294.719 888.034,294.719 888.034,269.081 "/> <g> <g> <g> <polygon fill="#232426" points="158.205,284.838 122.148,335.602 115.416,331.249 154.776,276.676 "/> <path fill="#151516" d="M122.34,336.606l-7.979-5.154l40.033-55.506l0.874-0.021l3.78,9.009L122.34,336.606z M116.473,331.049 l5.479,3.553l35.407-49.853l-2.755-6.568L116.473,331.049z"/> </g> <g> <polygon fill="#232426" points="250.423,282.469 158.205,284.838 154.776,276.676 257.767,273.902 "/> <path fill="#151516" d="M157.718,285.59l-3.786-9.008l0.462-0.638l103.784-2.795l0.506,0.823l-7.914,9.23l-0.327,0.004 L157.718,285.59z M155.879,277.387l2.813,6.693l91.385-2.344l6.045-7.054L155.879,277.387z"/> </g> <g> <polygon fill="#232426" points="307.713,372.815 296.772,373.633 293.56,350.569 304.334,349.43 "/> <path fill="#151516" d="M296.137,374.422l-3.415-24.507l11.997-1.271l0.325,0.529l3.515,24.323L296.137,374.422z M294.402,351.233l3.013,21.609l9.451-0.709l-3.165-21.896L294.402,351.233z"/> </g> <g> <polygon fill="#232426" points="293.56,350.569 250.423,282.469 257.767,273.902 304.334,349.43 "/> <path fill="#151516" d="M293.183,351.36l-0.245-0.387l-43.436-68.57l7.913-9.23l0.758-0.019l46.871,76.024l0.125,0.905 L293.183,351.36z M251.342,282.539l42.602,67.251l9.146-0.969l-45.418-73.669L251.342,282.539z"/> </g> </g> <g> <g> <polygon fill="#232426" points="703.348,386.036 708.61,368.1 647.852,367.752 309.017,372.815 296.772,373.633 299.552,386.036 "/> <path fill="#151516" d="M703.903,386.78H298.956l-2.816-12.358l1.275-1.576l11.555-0.762l338.874-5.076l61.629,0.352 l-0.234,1.496L703.903,386.78z M300.144,385.29h402.647l4.829-16.463l-59.77-0.33l-338.824,5.056l-11.343,0.762L300.144,385.29z "/> </g> </g> <g> <g> <polygon fill="#232426" points="754.436,280.265 712.489,342.778 701.233,342.778 744.647,272.431 "/> <path fill="#151516" d="M712.885,343.524h-12.537l0.178-1.012l43.703-70.812l0.662-0.02l10.541,8.431l-0.375,0.563 L712.885,343.524z M702.552,342.038h9.545l41.344-61.62l-8.604-6.883L702.552,342.038z"/> </g> <g> <polygon fill="#232426" points="708.61,368.1 696.788,367.752 701.233,342.778 712.489,342.778 "/> <path fill="#151516" d="M709.235,368.852l-13.326-0.385l4.615-25.955l0.295-0.478h12.529L709.235,368.852z M697.665,367.036 l10.312,0.306l3.656-23.816h-9.777L697.665,367.036z"/> </g> <g> <polygon fill="#232426" points="840.942,277.493 754.436,280.265 744.647,272.431 844.528,269.819 "/> <path fill="#151516" d="M754.184,281.017l-10.514-8.415l0.557-0.899l100.705-2.632l0.449,0.694l-3.963,8.45l-0.447,0.016 L754.184,281.017z M746.69,273.119l7.996,6.397l85.783-2.752l2.885-6.172L746.69,273.119z"/> </g> <g> <polygon fill="#232426" points="874.069,331.03 840.942,277.493 844.528,269.819 883.052,330.047 "/> <path fill="#151516" d="M873.692,331.819l-0.248-0.401l-33.342-53.877l3.961-8.461h0.877l39.373,61.575L873.692,331.819z M841.786,277.447l32.67,52.796l7.332-0.799l-37.149-58.092L841.786,277.447z"/> </g> </g> </g> <g> <g> <path fill="#0A0A0A" d="M275.433,367.331c0-1.575-0.072-3.137-0.177-4.688l0.889-0.063c0,0-0.09-1.186-0.181-2.366 c-0.145-1.175-0.292-2.355-0.292-2.355l-0.877,0.115c-0.221-1.648-0.477-3.271-0.804-4.885l0.869-0.183 c0,0-0.265-1.153-0.532-2.311c-0.241-1.168-0.591-2.308-0.591-2.308l-0.861,0.244c-0.438-1.596-0.933-3.174-1.479-4.725 l0.838-0.299c0,0-0.094-0.285-0.236-0.707c-0.161-0.41-0.377-0.968-0.598-1.517c-0.219-0.557-0.435-1.108-0.6-1.521 c-0.157-0.41-0.292-0.683-0.292-0.683l-0.814,0.351c-0.658-1.515-1.371-3-2.13-4.463l0.789-0.412c0,0-0.135-0.258-0.336-0.662 c-0.197-0.404-0.483-0.916-0.784-1.434c-0.592-1.025-1.188-2.058-1.188-2.058l-0.758,0.455c-0.854-1.412-1.773-2.785-2.726-4.129 l0.729-0.512c0,0-0.175-0.242-0.436-0.607c-0.266-0.359-0.588-0.859-0.959-1.315c-0.734-0.938-1.466-1.875-1.466-1.875 l-0.693,0.563c-1.035-1.277-2.119-2.523-3.244-3.738l0.648-0.6c0,0-0.819-0.861-1.643-1.719 c-0.854-0.826-1.711-1.648-1.711-1.648l-0.608,0.65c-1.2-1.129-2.438-2.229-3.715-3.269l0.563-0.692c0,0-0.938-0.736-1.869-1.472 c-0.462-0.375-0.945-0.711-1.313-0.973c-0.362-0.254-0.604-0.428-0.604-0.428l-0.517,0.727c-1.34-0.957-2.707-1.879-4.118-2.744 l0.462-0.758c0,0-0.251-0.162-0.637-0.377c-0.387-0.228-0.9-0.521-1.416-0.814c-1.021-0.612-2.088-1.133-2.088-1.139 l-0.413,0.787c-1.457-0.762-2.943-1.48-4.459-2.144l0.354-0.813c0,0-0.271-0.121-0.677-0.312 c-0.412-0.159-0.965-0.379-1.521-0.594c-0.552-0.227-1.104-0.438-1.521-0.602c-0.412-0.17-0.698-0.256-0.698-0.256l-0.296,0.838 c-1.552-0.556-3.128-1.043-4.725-1.492l0.24-0.855c0,0-0.285-0.082-0.713-0.207c-0.431-0.125-1.003-0.28-1.581-0.406 c-1.159-0.262-2.314-0.528-2.314-0.528l-0.186,0.871c-1.604-0.337-3.229-0.61-4.877-0.834l0.12-0.884 c0,0-1.178-0.147-2.354-0.302c-1.186-0.095-2.365-0.185-2.365-0.185l-0.063,0.883c-1.637-0.11-3.279-0.189-4.946-0.189v-0.896 c0,0-1.186,0.031-2.37,0.063c-1.192,0.009-2.371,0.107-2.371,0.107l0.055,0.891c-1.657,0.105-3.298,0.271-4.921,0.492 l-0.121-0.884c0,0-1.185,0.13-2.348,0.358c-1.165,0.205-2.341,0.417-2.341,0.417l0.18,0.873c-1.626,0.334-3.228,0.733-4.81,1.18 l-0.235-0.854c0,0-1.147,0.312-2.281,0.654c-1.125,0.39-2.255,0.767-2.255,0.767l0.297,0.842 c-1.562,0.551-3.099,1.145-4.605,1.809l-0.352-0.822c0,0-1.085,0.492-2.169,0.984c-0.548,0.23-1.063,0.525-1.462,0.723 c-0.396,0.201-0.662,0.345-0.662,0.345l0.407,0.789c-1.47,0.762-2.917,1.551-4.324,2.404l-0.461-0.757c0,0-1,0.64-2,1.277 c-0.501,0.314-1.003,0.639-1.355,0.902c-0.367,0.264-0.608,0.438-0.608,0.438l0.516,0.726c-1.354,0.944-2.671,1.938-3.952,2.979 l-0.561-0.688c0,0-0.242,0.168-0.574,0.467c-0.341,0.295-0.788,0.68-1.234,1.065c-0.448,0.394-0.896,0.777-1.23,1.074 c-0.323,0.305-0.539,0.512-0.539,0.512l0.608,0.652c-1.21,1.121-2.374,2.285-3.504,3.494l-0.648-0.609 c0,0-0.829,0.854-1.593,1.767c-0.389,0.451-0.778,0.897-1.07,1.237c-0.295,0.332-0.475,0.564-0.475,0.564l0.688,0.564 c-1.044,1.271-2.033,2.602-2.987,3.938l-0.729-0.51c0,0-0.17,0.242-0.431,0.602c-0.266,0.359-0.603,0.854-0.914,1.355 c-0.643,1.002-1.28,1.996-1.28,1.996l0.762,0.469c-0.858,1.406-1.66,2.852-2.425,4.315l-0.789-0.407c0,0-0.551,1.057-1.075,2.112 c-0.486,1.086-0.977,2.168-0.977,2.168l0.814,0.357c-0.659,1.506-1.27,3.039-1.824,4.602l-0.838-0.299 c0,0-0.382,1.125-0.764,2.252c-0.206,0.556-0.341,1.14-0.466,1.56c-0.126,0.432-0.207,0.719-0.207,0.719l0.855,0.242 c-0.442,1.586-0.854,3.182-1.19,4.803l-0.87-0.178c0,0-0.063,0.295-0.139,0.725c-0.076,0.441-0.181,1.021-0.287,1.611 c-0.229,1.168-0.367,2.344-0.367,2.344l0.883,0.125c-0.225,1.621-0.391,3.271-0.502,4.93l-0.887-0.063 c0,0-0.117,1.182-0.121,2.363c-0.031,1.192-0.063,2.377-0.063,2.377h0.892c0,0.047-0.003,0.088-0.003,0.135 c0,1.611,0.074,3.219,0.183,4.813l-0.887,0.063c0,0,0.09,1.186,0.179,2.365c0.147,1.178,0.297,2.356,0.297,2.356l0.884-0.114 c0.22,1.641,0.479,3.27,0.813,4.877l-0.87,0.186c0,0,0.271,1.156,0.533,2.314c0.135,0.58,0.271,1.155,0.397,1.584 c0.121,0.422,0.201,0.707,0.201,0.707l0.855-0.229c0.442,1.594,0.938,3.17,1.486,4.713l-0.838,0.306c0,0,0.095,0.276,0.24,0.696 c0.162,0.414,0.383,0.972,0.598,1.519c0.221,0.555,0.438,1.108,0.602,1.522c0.174,0.412,0.3,0.681,0.3,0.681l0.816-0.357 c0.657,1.523,1.375,3.014,2.133,4.475l-0.789,0.402c0,0,0.135,0.271,0.341,0.664c0.193,0.4,0.493,0.912,0.789,1.424 c0.594,1.039,1.186,2.068,1.186,2.068l0.763-0.465c0.854,1.416,1.778,2.778,2.731,4.121l-0.729,0.521 c0,0,0.176,0.242,0.433,0.603c0.265,0.356,0.587,0.858,0.969,1.315c0.732,0.935,1.465,1.873,1.465,1.873l0.688-0.563 c1.045,1.276,2.129,2.52,3.26,3.727l-0.648,0.602c0,0,0.819,0.859,1.64,1.722c0.856,0.824,1.719,1.641,1.719,1.641l0.607-0.645 c1.205,1.129,2.441,2.225,3.721,3.264l-0.562,0.691c0,0,0.933,0.731,1.867,1.461c0.457,0.373,0.955,0.707,1.313,0.967 c0.363,0.262,0.604,0.432,0.604,0.432l0.517-0.727c1.347,0.959,2.712,1.883,4.123,2.731l-0.461,0.763c0,0,1.029,0.592,2.059,1.19 c1.021,0.609,2.088,1.131,2.088,1.131l0.413-0.789c1.46,0.763,2.946,1.479,4.463,2.134l-0.352,0.813c0,0,0.271,0.125,0.679,0.308 c0.41,0.161,0.968,0.377,1.52,0.602c0.552,0.215,1.104,0.43,1.521,0.592c0.417,0.16,0.697,0.252,0.697,0.252l0.303-0.834 c1.546,0.545,3.123,1.039,4.718,1.484l-0.235,0.854c0,0,0.286,0.08,0.712,0.205s1.004,0.271,1.587,0.396 c1.155,0.27,2.313,0.537,2.313,0.537l0.186-0.869c1.604,0.332,3.234,0.592,4.88,0.813l-0.12,0.89c0,0,1.18,0.145,2.355,0.297 c1.185,0.09,2.366,0.188,2.366,0.188l0.063-0.896c1.613,0.117,3.24,0.188,4.88,0.188c0.021,0,0.041,0,0.063,0v0.89 c0,0,1.188-0.027,2.375-0.058c1.188-0.006,2.37-0.123,2.37-0.123l-0.06-0.889c1.658-0.105,3.3-0.277,4.927-0.504l0.12,0.889 c0,0,1.18-0.135,2.344-0.369c1.175-0.2,2.34-0.405,2.34-0.405l-0.179-0.882c1.626-0.332,3.222-0.741,4.804-1.186l0.241,0.854 c0,0,0.288-0.079,0.713-0.207c0.427-0.122,1.01-0.258,1.567-0.456c1.124-0.386,2.249-0.765,2.249-0.765l-0.3-0.84 c1.563-0.559,3.099-1.156,4.605-1.818l0.354,0.813c0,0,1.084-0.492,2.164-0.978c1.07-0.52,2.12-1.065,2.12-1.065l-0.406-0.785 c1.472-0.77,2.913-1.561,4.319-2.422l0.462,0.762c0,0,0.999-0.645,2.003-1.293c0.503-0.313,0.995-0.643,1.354-0.899 c0.361-0.263,0.604-0.433,0.604-0.433l-0.516-0.729c1.349-0.949,2.67-1.943,3.946-2.982l0.564,0.689c0,0,0.236-0.181,0.567-0.476 c0.341-0.289,0.788-0.684,1.235-1.063c0.447-0.396,0.905-0.771,1.229-1.086c0.322-0.308,0.538-0.515,0.538-0.515l-0.609-0.645 c1.206-1.129,2.376-2.293,3.501-3.504l0.648,0.608c0,0,0.206-0.217,0.512-0.539c0.305-0.329,0.686-0.776,1.075-1.229 c0.391-0.447,0.778-0.896,1.069-1.234c0.297-0.332,0.467-0.571,0.467-0.571l-0.687-0.558c1.04-1.293,2.029-2.604,2.979-3.949 l0.729,0.511c0,0,0.17-0.242,0.427-0.609c0.271-0.357,0.597-0.852,0.908-1.354c0.646-1.003,1.282-1.996,1.282-1.996l-0.759-0.468 c0.854-1.405,1.653-2.85,2.411-4.319l0.789,0.414c0,0,0.134-0.271,0.34-0.672c0.191-0.396,0.488-0.916,0.728-1.453 c0.493-1.084,0.98-2.17,0.98-2.17l-0.815-0.357c0.653-1.506,1.262-3.037,1.813-4.598l0.838,0.295c0,0,0.382-1.131,0.764-2.25 c0.19-0.563,0.335-1.146,0.46-1.564c0.127-0.432,0.207-0.721,0.207-0.721l-0.858-0.232c0.441-1.586,0.852-3.182,1.188-4.807 l0.869,0.174c0,0,0.21-1.166,0.417-2.338c0.237-1.156,0.362-2.35,0.362-2.35l-0.885-0.117c0.227-1.621,0.392-3.262,0.498-4.922 l0.889,0.055c0,0,0.106-1.182,0.116-2.365c0.029-1.19,0.06-2.375,0.06-2.375h-0.886v0.003H275.433z"/> <g> <polygon fill="#1E1E1E" points="150.721,367.385 171.316,324.829 216.87,314.61 253.587,343.499 253.793,390.774 216.991,420.04 171.286,409.67 "/> <polygon fill="#161616" points="153.258,367.385 172.836,326.918 216.152,317.213 251.062,344.674 251.26,389.622 216.265,417.45 172.81,407.584 "/> <polygon fill="#030303" points="179.671,377.77 181.083,354.209 200.173,340.829 222.625,347.174 231.713,368.963 220.286,389.477 197.211,393.385 "/> <polygon fill="#0C0C0C" points="187.768,374.456 188.745,358.225 201.894,349.01 217.353,353.385 223.616,368.387 215.741,382.52 199.85,385.202 "/> <polygon fill="#141414" points="194.491,371.694 195.1,361.557 203.313,355.797 212.98,358.53 216.893,367.903 211.977,376.741 202.042,378.418 "/> <g> <g> <polygon fill="#1C1C1C" points="186.029,372.368 155.192,370.969 155.745,358.85 186.581,360.26 "/> <polygon fill="#1C1C1C" points="197.135,385.264 176.802,408.499 167.675,400.502 188.01,377.278 "/> <rect x="195.431" y="394.908" transform="matrix(0.1769 0.9842 -0.9842 0.1769 568.2097 122.4973)" fill="#1C1C1C" width="30.87" height="12.125"/> <polygon fill="#1C1C1C" points="224.272,371.024 251.426,385.706 245.659,396.37 218.502,381.69 "/> <polygon fill="#1C1C1C" points="219.824,354.506 248.239,342.448 252.977,353.606 224.56,365.674 "/> <rect x="198.893" y="328.494" transform="matrix(0.269 -0.9631 0.9631 0.269 -165.5552 450.9843)" fill="#1C1C1C" width="30.861" height="12.126"/> <rect x="169.654" y="333.439" transform="matrix(-0.5877 -0.8091 0.8091 -0.5877 19.1871 688.7839)" fill="#1C1C1C" width="30.875" height="12.128"/> </g> <g> <polygon fill="#212121" points="144.68,370.495 155.192,370.969 155.745,358.85 145.23,358.379 "/> <rect x="163.525" y="402.391" transform="matrix(0.659 -0.7521 0.7521 0.659 -249.6597 266.225)" fill="#212121" width="10.52" height="12.133"/> <polygon fill="#212121" points="221.424,425.42 219.559,415.059 207.626,417.211 209.49,427.559 "/> <polygon fill="#212121" points="260.685,390.706 251.426,385.706 245.659,396.37 254.918,401.381 "/> <polygon fill="#212121" points="257.924,338.336 248.239,342.448 252.977,353.606 262.666,349.506 "/> <rect x="214.586" y="308.549" transform="matrix(-0.2686 0.9632 -0.9632 -0.2686 581.9542 187.3639)" fill="#212121" width="10.524" height="12.123"/> <polygon fill="#212121" points="164.959,322.077 171.142,330.584 180.957,323.461 174.768,314.944 "/> </g> </g> </g> </g> <g> <path fill="#0A0A0A" d="M866.927,367.922c0-1.576-0.062-3.138-0.17-4.677l0.896-0.063c0,0-0.1-1.185-0.188-2.363 c-0.146-1.186-0.287-2.356-0.287-2.356l-0.879,0.114c-0.228-1.647-0.478-3.276-0.81-4.887l0.879-0.178 c0,0-0.27-1.164-0.536-2.314c-0.24-1.164-0.595-2.303-0.595-2.303l-0.856,0.232c-0.439-1.595-0.937-3.175-1.479-4.726l0.83-0.283 c0,0-0.088-0.289-0.229-0.709c-0.162-0.414-0.392-0.971-0.603-1.522c-0.219-0.558-0.432-1.104-0.604-1.523 c-0.152-0.414-0.285-0.682-0.285-0.682l-0.816,0.354c-0.651-1.522-1.369-3.01-2.133-4.473l0.789-0.402 c0,0-0.135-0.268-0.334-0.662c-0.197-0.403-0.492-0.924-0.787-1.436c-0.592-1.029-1.184-2.062-1.184-2.062l-0.765,0.468 c-0.852-1.416-1.772-2.787-2.723-4.146l0.734-0.51c0,0-0.185-0.242-0.439-0.609c-0.26-0.35-0.584-0.854-0.959-1.315 c-0.727-0.935-1.461-1.861-1.461-1.861l-0.69,0.563c-1.037-1.291-2.121-2.525-3.253-3.734l0.654-0.609 c0,0-0.824-0.858-1.641-1.723c-0.854-0.826-1.713-1.641-1.713-1.641l-0.609,0.646c-1.201-1.129-2.438-2.223-3.711-3.271 l0.557-0.689c0,0-0.932-0.727-1.862-1.461c-0.468-0.377-0.951-0.719-1.312-0.977c-0.367-0.259-0.606-0.433-0.606-0.433 l-0.521,0.728c-1.334-0.957-2.705-1.877-4.111-2.744l0.457-0.752c0,0-0.254-0.162-0.639-0.382 c-0.385-0.223-0.902-0.52-1.416-0.813c-1.014-0.615-2.088-1.137-2.088-1.137l-0.404,0.786c-1.461-0.762-2.944-1.479-4.463-2.139 l0.353-0.813c0,0-0.271-0.125-0.673-0.312c-0.424-0.162-0.969-0.381-1.516-0.602c-0.557-0.22-1.109-0.437-1.521-0.603 c-0.412-0.166-0.699-0.248-0.699-0.248l-0.306,0.834c-1.543-0.555-3.118-1.043-4.717-1.487l0.24-0.857 c0,0-0.285-0.078-0.715-0.205c-0.435-0.125-0.994-0.281-1.578-0.408c-1.156-0.264-2.322-0.527-2.322-0.527l-0.178,0.87 c-1.604-0.337-3.238-0.609-4.875-0.835l0.113-0.884c0,0-1.17-0.15-2.355-0.3c-1.184-0.095-2.367-0.185-2.367-0.185l-0.063,0.883 c-1.631-0.111-3.279-0.191-4.947-0.191v-0.893c0,0-1.182,0.029-2.365,0.059c-1.188,0.011-2.377,0.111-2.377,0.111l0.06,0.888 c-1.65,0.107-3.302,0.273-4.92,0.493l-0.117-0.883c0,0-1.188,0.124-2.351,0.355c-1.163,0.205-2.342,0.418-2.342,0.418 l0.185,0.873c-1.638,0.332-3.23,0.736-4.814,1.175l-0.233-0.854c0,0-1.146,0.316-2.283,0.666c-1.119,0.385-2.25,0.762-2.25,0.762 l0.295,0.843c-1.562,0.545-3.103,1.146-4.607,1.805l-0.354-0.816c0,0-1.082,0.488-2.16,0.979 c-0.545,0.231-1.066,0.535-1.459,0.727c-0.404,0.205-0.662,0.342-0.662,0.342l0.4,0.789c-1.472,0.757-2.912,1.55-4.32,2.402 l-0.463-0.754c0,0-0.998,0.642-2.002,1.277c-0.5,0.315-0.994,0.639-1.354,0.908c-0.369,0.264-0.604,0.432-0.604,0.432 l0.518,0.727c-1.354,0.949-2.68,1.937-3.961,2.978l-0.557-0.689c0,0-0.24,0.185-0.572,0.479 c-0.342,0.285-0.789,0.682-1.238,1.063c-0.446,0.386-0.895,0.777-1.235,1.064c-0.322,0.313-0.537,0.51-0.537,0.51l0.606,0.656 c-1.209,1.129-2.375,2.291-3.504,3.494l-0.645-0.601c0,0-0.834,0.843-1.599,1.756c-0.385,0.447-0.778,0.896-1.063,1.234 c-0.297,0.334-0.479,0.578-0.479,0.578l0.691,0.561c-1.051,1.273-2.035,2.593-2.984,3.945l-0.727-0.52 c0,0-0.183,0.237-0.439,0.604c-0.258,0.357-0.6,0.842-0.916,1.355c-0.635,0.996-1.276,2.002-1.276,2.002l0.762,0.463 c-0.861,1.399-1.658,2.854-2.42,4.313l-0.789-0.401c0,0-0.557,1.049-1.074,2.115c-0.483,1.084-0.979,2.17-0.979,2.17l0.813,0.348 c-0.662,1.514-1.271,3.047-1.83,4.596l-0.834-0.295c0,0-0.383,1.133-0.762,2.252c-0.205,0.566-0.34,1.146-0.475,1.568 c-0.115,0.43-0.197,0.717-0.197,0.717l0.861,0.242c-0.447,1.576-0.861,3.172-1.191,4.805l-0.879-0.188 c0,0-0.063,0.295-0.137,0.735c-0.08,0.438-0.179,1.019-0.285,1.603c-0.23,1.166-0.365,2.35-0.365,2.35l0.875,0.115 c-0.225,1.631-0.385,3.273-0.5,4.93l-0.889-0.063c0,0-0.115,1.188-0.115,2.377c-0.035,1.186-0.063,2.375-0.063,2.375h0.888 c0,0.035,0,0.082,0,0.125c0,1.623,0.069,3.229,0.18,4.813l-0.889,0.064c0,0,0.09,1.186,0.182,2.375 c0.15,1.178,0.295,2.348,0.295,2.348l0.887-0.113c0.22,1.646,0.484,3.281,0.816,4.886l-0.881,0.18c0,0,0.271,1.154,0.539,2.32 c0.135,0.573,0.26,1.146,0.395,1.576c0.127,0.432,0.207,0.719,0.207,0.719l0.859-0.242c0.439,1.594,0.932,3.172,1.479,4.723 l-0.834,0.297c0,0,0.093,0.277,0.244,0.714c0.16,0.407,0.375,0.952,0.59,1.514c0.228,0.557,0.441,1.102,0.604,1.52 c0.18,0.404,0.305,0.677,0.305,0.677l0.816-0.354c0.649,1.521,1.371,3.004,2.133,4.465l-0.789,0.41c0,0,0.135,0.262,0.34,0.664 c0.188,0.396,0.492,0.914,0.781,1.426c0.6,1.031,1.191,2.063,1.191,2.063l0.762-0.467c0.854,1.418,1.771,2.788,2.731,4.135 l-0.727,0.51c0,0,0.168,0.24,0.43,0.609c0.263,0.35,0.582,0.852,0.959,1.309c0.734,0.941,1.474,1.875,1.474,1.875l0.688-0.566 c1.039,1.281,2.136,2.527,3.254,3.73l-0.645,0.607c0,0,0.813,0.858,1.641,1.715c0.859,0.817,1.713,1.645,1.713,1.645l0.609-0.651 c1.209,1.131,2.445,2.223,3.727,3.264l-0.563,0.688c0,0,0.934,0.736,1.867,1.476c0.455,0.377,0.957,0.709,1.313,0.967 c0.357,0.252,0.603,0.432,0.603,0.432l0.521-0.727c1.344,0.951,2.707,1.873,4.119,2.729l-0.463,0.767 c0,0,1.029,0.594,2.061,1.186c1.021,0.607,2.089,1.127,2.089,1.127l0.413-0.789c1.459,0.765,2.947,1.48,4.462,2.134l-0.357,0.825 c0,0,0.277,0.115,0.682,0.298c0.422,0.17,0.967,0.387,1.523,0.602c0.547,0.223,1.104,0.438,1.516,0.6 c0.422,0.162,0.699,0.242,0.699,0.242l0.305-0.834c1.543,0.549,3.119,1.039,4.715,1.488l-0.231,0.852c0,0,0.289,0.09,0.709,0.205 c0.432,0.138,1.004,0.271,1.586,0.404c1.156,0.27,2.313,0.527,2.313,0.527l0.188-0.867c1.604,0.33,3.236,0.6,4.875,0.824 l-0.115,0.877c0,0,1.172,0.151,2.354,0.307c1.186,0.088,2.369,0.178,2.369,0.178l0.063-0.889 c1.615,0.109,3.234,0.188,4.875,0.188c0.027,0,0.043,0,0.064,0v0.892c0,0,1.188-0.035,2.375-0.064 c1.188-0.01,2.375-0.117,2.375-0.117l-0.064-0.887c1.658-0.104,3.299-0.279,4.933-0.502l0.112,0.887c0,0,1.187-0.133,2.354-0.368 c1.174-0.214,2.338-0.419,2.338-0.419l-0.183-0.866c1.625-0.345,3.222-0.756,4.808-1.191l0.242,0.861 c0,0,0.282-0.095,0.719-0.211c0.42-0.134,1.002-0.271,1.563-0.465c1.121-0.378,2.24-0.763,2.24-0.763l-0.295-0.834 c1.56-0.557,3.092-1.168,4.605-1.83l0.35,0.816c0,0,1.086-0.484,2.17-0.979c1.066-0.51,2.123-1.063,2.123-1.063l-0.412-0.789 c1.461-0.762,2.912-1.563,4.32-2.418l0.457,0.762c0,0,1.004-0.645,2.008-1.283c0.502-0.313,0.994-0.645,1.354-0.914 c0.357-0.26,0.603-0.43,0.603-0.43l-0.512-0.725c1.346-0.951,2.672-1.947,3.942-2.986l0.564,0.689c0,0,0.24-0.181,0.572-0.478 c0.342-0.285,0.789-0.68,1.235-1.065c0.449-0.396,0.904-0.771,1.229-1.074c0.313-0.314,0.539-0.512,0.539-0.512l-0.611-0.652 c1.211-1.131,2.375-2.295,3.498-3.496l0.652,0.6c0,0,0.207-0.215,0.512-0.537c0.297-0.319,0.68-0.776,1.076-1.229 c0.385-0.447,0.77-0.898,1.063-1.234c0.297-0.334,0.478-0.578,0.478-0.578l-0.699-0.553c1.047-1.281,2.035-2.6,2.986-3.953 l0.731,0.515c0,0,0.172-0.242,0.422-0.604c0.269-0.358,0.601-0.86,0.912-1.36c0.64-0.99,1.285-1.996,1.285-1.996l-0.764-0.47 c0.856-1.395,1.646-2.854,2.407-4.313l0.789,0.402c0,0,0.138-0.269,0.341-0.662c0.196-0.396,0.493-0.912,0.733-1.461 c0.484-1.089,0.979-2.16,0.979-2.16l-0.814-0.357c0.654-1.506,1.256-3.047,1.814-4.604l0.828,0.295c0,0,0.389-1.119,0.764-2.248 c0.199-0.562,0.342-1.146,0.465-1.563c0.127-0.432,0.209-0.719,0.209-0.719l-0.861-0.244c0.439-1.584,0.854-3.18,1.187-4.801 l0.877,0.178c0,0,0.207-1.174,0.412-2.338c0.233-1.166,0.356-2.35,0.356-2.35l-0.877-0.117c0.224-1.631,0.386-3.271,0.49-4.928 l0.896,0.063c0,0,0.1-1.184,0.104-2.377c0.035-1.182,0.063-2.375,0.063-2.375h-0.896v-0.016h-0.003V367.922z"/> <g> <polygon fill="#1E1E1E" points="742.219,367.983 762.815,325.42 808.374,315.213 845.086,344.09 845.29,391.368 808.489,420.637 762.79,410.262 "/> <polygon fill="#161616" points="744.758,367.977 764.342,327.51 807.655,317.802 842.565,345.264 842.756,390.221 807.764,418.043 764.313,408.182 "/> <polygon fill="#030303" points="771.172,378.372 772.586,354.801 791.677,341.42 814.129,347.774 823.217,369.561 811.788,390.077 788.711,393.985 "/> <polygon fill="#0C0C0C" points="779.272,375.049 780.247,358.815 793.389,349.602 808.856,353.975 815.114,368.979 807.243,383.112 791.352,385.803 "/> <polygon fill="#141414" points="785.993,372.299 786.602,362.149 794.823,356.387 804.483,359.131 808.391,368.504 803.481,377.334 793.54,379.01 "/> <g> <g> <polygon fill="#1C1C1C" points="777.53,372.969 746.69,371.559 747.247,359.452 778.079,360.848 "/> <polygon fill="#1C1C1C" points="788.639,385.866 768.302,409.088 759.177,401.102 779.512,377.872 "/> <polygon fill="#1C1C1C" points="805.594,385.274 811.063,415.659 799.124,417.802 793.657,387.418 "/> <polygon fill="#1C1C1C" points="815.776,371.614 842.927,386.303 837.163,396.969 810.008,382.29 "/> <polygon fill="#1C1C1C" points="811.319,355.104 839.745,343.043 844.475,354.209 816.063,366.272 "/> <polygon fill="#1C1C1C" points="795.815,348.377 804.116,318.643 815.803,321.905 807.495,351.637 "/> <rect x="761.11" y="334.074" transform="matrix(-0.5877 -0.8091 0.8091 -0.5877 957.7245 1168.3206)" fill="#1C1C1C" width="30.867" height="12.128"/> </g> <g> <polygon fill="#212121" points="736.178,371.088 746.69,371.559 747.247,359.452 736.725,358.977 "/> <rect x="755.02" y="403.02" transform="matrix(0.6587 -0.7524 0.7524 0.6587 -48.3228 711.6293)" fill="#212121" width="10.521" height="12.124"/> <polygon fill="#212121" points="812.928,426.01 811.063,415.659 799.124,417.802 800.987,428.163 "/> <polygon fill="#212121" points="852.184,391.305 842.927,386.303 837.163,396.969 846.411,401.971 "/> <polygon fill="#212121" points="849.424,338.936 839.745,343.043 844.475,354.209 854.165,350.094 "/> <polygon fill="#212121" points="806.948,308.51 804.116,318.643 815.803,321.905 818.626,311.77 "/> <polygon fill="#212121" points="756.463,322.67 762.647,331.182 772.461,324.057 766.268,315.545 "/> </g> </g> </g> </g> </g> </g> </svg>